<svg aria-hidden="true" style="position: absolute; width: 0; height: 0; overflow: hidden;" version="1.1" xmlns="http://www.w3.org/2000/svg" xmlns:xlink="http://www.w3.org/1999/xlink">
<defs>
<symbol id="icon-arrow-left" viewBox="0 0 32 32">
<path fill="none" stroke="#fff" style="stroke: var(--color1, #fff)" stroke-linejoin="round" stroke-linecap="round" stroke-miterlimit="4" stroke-width="1.3333" d="M25.996 16l-19.996 0.004M6 16.004l5.384 5.386M6 16.004l5.384-5.386"></path>
</symbol>
<symbol id="icon-arrow-right" viewBox="0 0 32 32">
<path fill="none" stroke="#fff" style="stroke: var(--color1, #fff)" stroke-linejoin="round" stroke-linecap="round" stroke-miterlimit="4" stroke-width="1.3333" d="M6 16.004l19.996-0.004M25.996 16l-5.384-5.386M25.996 16l-5.384 5.386"></path>
</symbol>
<symbol id="icon-burger" viewBox="0 0 31 32">
<path fill="none" stroke="#fff" style="stroke: var(--color1, #fff)" stroke-linejoin="miter" stroke-linecap="round" stroke-miterlimit="4" stroke-width="1.2929" d="M7.273 9.535h16.485M7.273 21.172h16.485M7.273 15.354h16.485"></path>
</symbol>
<symbol id="icon-check-white" viewBox="0 0 32 32">
<path fill="none" stroke="#fff" style="stroke: var(--color1, #fff)" stroke-linejoin="round" stroke-linecap="round" stroke-miterlimit="4" stroke-width="3" d="M7 14.941l6.667 7.059 11.333-12"></path>
</symbol>
<symbol id="icon-chevron-down" viewBox="0 0 46 32">
<path stroke-linejoin="round" stroke-linecap="round" stroke-miterlimit="4" stroke-width="4.5714" d="M43.429 5.714l-20.571 20.571-20.571-20.571"></path>
</symbol>
<symbol id="icon-clock" viewBox="0 0 32 32">
<path stroke-linejoin="round" stroke-linecap="round" stroke-miterlimit="4" stroke-width="0.6667" d="M16 10.154v6.577l4.385 3.654M25.5 16c0 5.247-4.253 9.5-9.5 9.5s-9.5-4.253-9.5-9.5c0-5.247 4.253-9.5 9.5-9.5s9.5 4.253 9.5 9.5z"></path>
</symbol>
<symbol id="icon-close" viewBox="0 0 32 32">
<path stroke-linejoin="round" stroke-linecap="round" stroke-miterlimit="4" stroke-width="2" d="M2.5 2.5l13.5 13.5M16 16l-13.5 13.5M16 16l13.5 13.5M16 16l13.5-13.5"></path>
</symbol>
<symbol id="icon-close-with-circle" viewBox="0 0 32 32">
<path fill="none" stroke="#fff" style="stroke: var(--color1, #fff)" stroke-linejoin="miter" stroke-linecap="butt" stroke-miterlimit="4" stroke-width="1.3333" d="M25.5 16c0 5.247-4.253 9.5-9.5 9.5s-9.5-4.253-9.5-9.5c0-5.247 4.253-9.5 9.5-9.5s9.5 4.253 9.5 9.5z"></path>
<path fill="none" stroke="#fff" style="stroke: var(--color1, #fff)" stroke-linejoin="miter" stroke-linecap="round" stroke-miterlimit="4" stroke-width="1.3333" d="M19.699 12.346l-3.699 3.699M16 16.046l-3.699 3.699M16 16.046l3.699 3.699M16 16.046l-3.699-3.699"></path>
</symbol>
<symbol id="icon-favorites-black" viewBox="0 0 32 32">
<path stroke-linejoin="round" stroke-linecap="round" stroke-miterlimit="4" stroke-width="1.3333" d="M15.996 4.667c1.685 0 3.231 0.161 4.457 0.348 1.552 0.236 2.768 1.299 3.115 2.785 0.418 1.794 0.828 4.522 0.758 8.187-0.078 4.044-0.668 6.962-1.237 8.866-0.154 0.515-0.51 0.78-0.913 0.848-0.421 0.071-0.941-0.069-1.363-0.49-0.769-0.766-1.65-1.593-2.462-2.232-0.405-0.319-0.809-0.604-1.184-0.811-0.353-0.196-0.767-0.374-1.171-0.374-0.397 0-0.825 0.175-1.199 0.367-0.399 0.205-0.84 0.486-1.292 0.805-0.905 0.639-1.907 1.466-2.789 2.233-0.466 0.405-1.014 0.5-1.447 0.383-0.417-0.114-0.769-0.434-0.878-0.992-0.372-1.917-0.725-4.749-0.725-8.59 0-3.831 0.395-6.534 0.788-8.273 0.326-1.442 1.502-2.468 3.014-2.702 1.236-0.191 2.81-0.358 4.527-0.358z"></path>
</symbol>
<symbol id="icon-favorites-white" viewBox="0 0 32 32">
<path fill="none" stroke="#fff" style="stroke: var(--color1, #fff)" stroke-linejoin="round" stroke-linecap="round" stroke-miterlimit="4" stroke-width="1.3333" d="M15.996 4.667c1.685 0 3.231 0.161 4.457 0.348 1.552 0.236 2.768 1.299 3.115 2.785 0.418 1.794 0.828 4.522 0.758 8.187-0.078 4.044-0.668 6.962-1.237 8.866-0.154 0.515-0.51 0.78-0.913 0.848-0.421 0.071-0.941-0.069-1.363-0.49-0.769-0.766-1.65-1.593-2.462-2.232-0.405-0.319-0.809-0.604-1.184-0.811-0.353-0.196-0.767-0.374-1.171-0.374-0.397 0-0.825 0.175-1.199 0.367-0.399 0.205-0.84 0.486-1.292 0.805-0.905 0.639-1.907 1.466-2.789 2.233-0.466 0.405-1.014 0.5-1.447 0.383-0.417-0.114-0.769-0.434-0.878-0.992-0.372-1.917-0.725-4.749-0.725-8.59 0-3.831 0.395-6.534 0.788-8.273 0.326-1.442 1.502-2.468 3.014-2.702 1.236-0.191 2.81-0.358 4.527-0.358z"></path>
</symbol>
<symbol id="icon-filters" viewBox="0 0 31 32">
<path stroke-linejoin="miter" stroke-linecap="butt" stroke-miterlimit="4" stroke-width="1.28" d="M8.552 7.84h13.616c1.012 0 1.832 0.82 1.832 1.832 0 0.468-0.179 0.918-0.5 1.258l-6.146 6.511v4.507c0 1.469-1.535 2.434-2.859 1.796-0.69-0.332-1.129-1.031-1.129-1.796v-4.507l-6.146-6.511c-0.321-0.34-0.5-0.79-0.5-1.258 0-1.012 0.82-1.832 1.832-1.832z"></path>
</symbol>
<symbol id="icon-hide-password" viewBox="0 0 32 32">
<path stroke-linejoin="miter" stroke-linecap="round" stroke-miterlimit="4" stroke-width="1.3333" d="M19.214 22.65c-1.086 0.504-2.291 0.833-3.56 0.833-4.779 0-8.654-4.655-8.654-5.838 0-0.67 1.245-2.456 3.194-3.878M23.269 19.516c0.662-0.797 1.038-1.502 1.038-1.871 0-1.183-3.874-5.837-8.654-5.837 2.103 0 3.808 1.691 3.808 3.777M15.654 19.362c-2.103 0-3.808-1.691-3.808-3.777M25 11.807c-2.636-2.181-5.713-3.434-9-3.434-1.185 0-2.342 0.163-3.462 0.473M7 11.807c0.244-0.202 0.492-0.396 0.744-0.582M7 7l16.714 16.875"></path>
</symbol>
<symbol id="icon-home-black" viewBox="0 0 31 32">
<path d="M6.24 16.503v0zM6.24 23.722v0zM23.077 25.12v0zM7.643 25.12v0zM24.48 16.503v0zM24.48 23.722v0zM23.738 14.608v0zM17.424 7.781v0zM13.296 7.781v0zM6.982 14.608v0zM12.554 18.131v0zM12.554 24.421v0zM17.465 25.12v0zM13.255 25.12v0zM18.166 18.131v0zM18.166 24.421v0zM17.465 17.432v0zM13.255 17.432v0zM6.24 16.503h-0.48v7.219h0.96v-7.219h-0.48zM23.077 25.12v-0.48h-15.434v0.96h15.434v-0.48zM24.48 16.503h-0.48v7.219h0.96v-7.219h-0.48zM23.738 14.608l0.352-0.326-6.314-6.827-0.705 0.652 6.314 6.827 0.352-0.326zM13.296 7.781l-0.352-0.326-6.314 6.827 0.705 0.652 6.314-6.827-0.352-0.326zM17.424 7.781l0.352-0.326c-1.302-1.407-3.531-1.407-4.832 0l0.705 0.652c0.921-0.996 2.501-0.996 3.423 0l0.352-0.326zM24.48 16.503h0.48c0-0.823-0.311-1.616-0.87-2.22l-0.705 0.652c0.396 0.428 0.615 0.988 0.615 1.569h0.48zM6.24 16.503h0.48c0-0.581 0.219-1.141 0.615-1.569l-0.705-0.652c-0.559 0.605-0.87 1.397-0.87 2.22h0.48zM6.24 23.722h-0.48c0 1.039 0.845 1.878 1.883 1.878v-0.96c-0.511 0-0.923-0.413-0.923-0.918h-0.48zM23.077 25.12v0.48c1.038 0 1.883-0.839 1.883-1.878h-0.96c0 0.505-0.412 0.918-0.923 0.918v0.48zM12.554 18.131h-0.48v6.29h0.96v-6.29h-0.48zM17.465 25.12v-0.48h-4.209v0.96h4.209v-0.48zM18.166 18.131h-0.48v6.29h0.96v-6.29h-0.48zM17.465 17.432v-0.48h-4.209v0.96h4.209v-0.48zM18.166 18.131h0.48c0-0.653-0.531-1.179-1.182-1.179v0.96c0.124 0 0.222 0.1 0.222 0.219h0.48zM12.554 18.131h0.48c0-0.119 0.098-0.219 0.222-0.219v-0.96c-0.651 0-1.182 0.526-1.182 1.179h0.48zM12.554 24.421h-0.48c0 0.653 0.531 1.179 1.182 1.179v-0.96c-0.124 0-0.222-0.1-0.222-0.219h-0.48zM17.465 25.12v0.48c0.651 0 1.182-0.526 1.182-1.179h-0.96c0 0.119-0.098 0.219-0.222 0.219v0.48z"></path>
</symbol>
<symbol id="icon-home-white" viewBox="0 0 32 32">
<path fill="#fff" style="fill: var(--color1, #fff)" d="M6.5 16.524v0zM6.5 24.044v0zM24.038 25.5v0zM7.962 25.5v0zM25.5 16.524v0zM25.5 24.044v0zM24.727 14.55v0zM18.15 7.439v0zM13.85 7.439v0zM7.273 14.55v0zM13.077 18.219v0zM13.077 24.772v0zM18.192 25.5v0zM13.808 25.5v0zM18.923 18.219v0zM18.923 24.772v0zM18.192 17.491v0zM13.808 17.491v0zM6.5 16.524h-0.333v7.52h0.667v-7.52h-0.333zM24.038 25.5v-0.333h-16.077v0.667h16.077v-0.333zM25.5 16.524h-0.333v7.52h0.667v-7.52h-0.333zM24.727 14.55l0.245-0.226-6.577-7.112-0.489 0.453 6.577 7.112 0.245-0.226zM13.85 7.439l-0.245-0.226-6.577 7.111 0.489 0.453 6.577-7.111-0.245-0.226zM18.15 7.439l0.245-0.226c-1.29-1.394-3.499-1.394-4.789 0l0.489 0.453c1.026-1.109 2.784-1.109 3.81 0l0.245-0.226zM25.5 16.524h0.333c0-0.815-0.308-1.6-0.862-2.2l-0.489 0.453c0.441 0.476 0.685 1.1 0.685 1.747h0.333zM6.5 16.524h0.333c0-0.647 0.244-1.271 0.685-1.747l-0.489-0.453c-0.554 0.599-0.862 1.385-0.862 2.2h0.333zM6.5 24.044h-0.333c0 0.989 0.805 1.789 1.795 1.789v-0.667c-0.624 0-1.128-0.504-1.128-1.123h-0.333zM24.038 25.5v0.333c0.99 0 1.795-0.8 1.795-1.789h-0.667c0 0.619-0.504 1.123-1.128 1.123v0.333zM13.077 18.219h-0.333v6.553h0.667v-6.553h-0.333zM18.192 25.5v-0.333h-4.385v0.667h4.385v-0.333zM18.923 18.219h-0.333v6.553h0.667v-6.553h-0.333zM18.192 17.491v-0.333h-4.385v0.667h4.385v-0.333zM18.923 18.219h0.333c0-0.587-0.478-1.061-1.064-1.061v0.667c0.221 0 0.397 0.178 0.397 0.395h0.333zM13.077 18.219h0.333c0-0.217 0.177-0.395 0.397-0.395v-0.667c-0.587 0-1.064 0.474-1.064 1.061h0.333zM13.077 24.772h-0.333c0 0.587 0.478 1.061 1.064 1.061v-0.667c-0.221 0-0.397-0.178-0.397-0.395h-0.333zM18.192 25.5v0.333c0.587 0 1.064-0.474 1.064-1.061h-0.667c0 0.217-0.177 0.395-0.397 0.395v0.333z"></path>
</symbol>
<symbol id="icon-logout" viewBox="0 0 32 32">
<path fill="none" stroke="#fff" style="stroke: var(--color1, #fff)" stroke-linejoin="round" stroke-linecap="round" stroke-miterlimit="4" stroke-width="1.3333" d="M13.077 6.5h-3.654c-1.614 0-2.923 1.309-2.923 2.923v13.154c0 1.614 1.309 2.923 2.923 2.923h3.654M11.5 16h14.615M26.115 16l-4.385 4.385M26.115 16l-4.385-4.385"></path>
</symbol>
<symbol id="icon-recycle-black" viewBox="0 0 32 32">
<path stroke-linejoin="round" stroke-linecap="round" stroke-miterlimit="4" stroke-width="1.3333" d="M16 21.846v-8.769M6.5 9.423h2.192M25.5 9.423h-2.192M19.654 9.423h-7.308M19.654 9.423v-1.462c0-0.807-0.654-1.462-1.462-1.462h-4.385c-0.807 0-1.462 0.654-1.462 1.462v1.462M19.654 9.423h3.654M12.346 9.423h-3.654M23.308 9.423v13.154c0 1.614-1.309 2.923-2.923 2.923h-8.769c-1.614 0-2.923-1.309-2.923-2.923v-13.154"></path>
</symbol>
<symbol id="icon-recycle-white" viewBox="0 0 32 32">
<path fill="none" stroke="#fff" style="stroke: var(--color1, #fff)" stroke-linejoin="round" stroke-linecap="round" stroke-miterlimit="4" stroke-width="1.3333" d="M16 21.846v-8.769M6.5 9.423h2.192M25.5 9.423h-2.192M19.654 9.423h-7.308M19.654 9.423v-1.462c0-0.807-0.654-1.462-1.462-1.462h-4.385c-0.807 0-1.462 0.654-1.462 1.462v1.462M19.654 9.423h3.654M12.346 9.423h-3.654M23.308 9.423v13.154c0 1.614-1.309 2.923-2.923 2.923h-8.769c-1.614 0-2.923-1.309-2.923-2.923v-13.154"></path>
</symbol>
<symbol id="icon-vertical-line" viewBox="0 0 1 32">
<path fill="#fff" style="fill: var(--color1, #fff)" d="M0 0.4h0.8v31.2h-0.8v-31.2z"></path>
</symbol>
</defs>
</svg>
